<svg id="Layer_2" data-name="Layer 2" xmlns="http://www.w3.org/2000/svg" viewBox="0 0 111.95 136.98"><defs><style>.cls-1,.cls-2{fill:none;stroke:#ff6d33;stroke-miterlimit:10;}.cls-1{stroke-width:2px;}.cls-3,.cls-6{fill:#ff6d33;}.cls-4{fill:#f93;}.cls-5{fill:#fff;}.cls-6{font-size:16.26px;font-family:FuturaBT-Medium, Futura Md BT;font-weight:500;}</style></defs><rect class="cls-1" x="2.45" y="1" width="108.5" height="108.5" rx="44.06"/><rect class="cls-2" x="20.22" y="21.04" width="71.29" height="71.29" rx="25.74"/><path class="cls-3" d="M287.48,259.42l-19-21.46a5,5,0,0,1,6.94-7.25l22.08,19.16a7.17,7.17,0,0,1,.81,9.66A7.27,7.27,0,0,1,287.48,259.42Z" transform="translate(-196.05 -152.5)"/><path class="cls-4" d="M231.2,182A25,25,0,0,0,221,184.69a24.5,24.5,0,0,0-9.83,9.07,23.07,23.07,0,0,0-2.64,6.81l-3.4,25a9.32,9.32,0,0,0,.75,5.67,9.56,9.56,0,0,0,6,4.91,9.47,9.47,0,0,0,9.45-3.4L228.93,218a3.7,3.7,0,0,1,1.14-1.51,4.16,4.16,0,0,1,2.64-.76c2.14,0,17.32,0,38.19,0a4.36,4.36,0,0,1,2.26.76,4.48,4.48,0,0,1,1.14,1.13l7.18,14.74a9.61,9.61,0,0,0,2.27,2.27,10.1,10.1,0,0,0,7.94,1.51,9.83,9.83,0,0,0,6.8-8.69,209.43,209.43,0,0,0-3.4-24.95c-.72-3.62-1.48-6.81-3.78-10.21a23.93,23.93,0,0,0-11-8.7,23.46,23.46,0,0,0-8.7-1.51Z" transform="translate(-196.05 -152.5)"/><rect class="cls-5" x="26.37" y="38.99" width="4.7" height="13.61" rx="2.35"/><rect class="cls-5" x="222.42" y="191.49" width="4.7" height="13.61" rx="2.35" transform="translate(227.02 -178.98) rotate(90)"/><circle class="cls-5" cx="82.78" cy="40.13" r="2.27"/><circle class="cls-5" cx="82.78" cy="49.2" r="2.27"/><circle class="cls-5" cx="78.25" cy="44.66" r="2.27"/><circle class="cls-5" cx="87.32" cy="44.66" r="2.27"/><rect class="cls-5" x="46.11" y="36.35" width="4.16" height="11.72" rx="2.08"/><rect class="cls-5" x="63.12" y="36.35" width="4.16" height="11.72" rx="2.08"/><path class="cls-5" d="M266.7,204c.48.67,0,1.78-.29,2.35-2,4.28-8.71,5.95-13.68,5.59-8.24-.59-14.51-6.91-14-7.94.46-.88,5.43,2.61,13.83,2.65C259.94,206.66,265.49,202.29,266.7,204Z" transform="translate(-196.05 -152.5)"/><text class="cls-6" transform="translate(0 133.15)">GameQu store</text></svg>