<svg id="Layer_2" data-name="Layer 2" xmlns="http://www.w3.org/2000/svg" viewBox="0 0 600.6 289"><defs><style>.cls-1{fill:none;stroke:#ff6d33;stroke-miterlimit:10;stroke-width:2px;}.cls-2,.cls-5{fill:#ff6d33;}.cls-3{fill:#f93;}.cls-4{fill:#fff;}.cls-5{font-size:43.02px;font-family:FuturaBT-Medium, Futura Md BT;font-weight:500;}</style></defs><rect class="cls-1" x="1" y="1" width="287" height="287" rx="118.01"/><rect class="cls-1" x="48.02" y="54" width="188.58" height="188.58" rx="77.39"/><path class="cls-2" d="M250.88,372.68q-25.14-28.38-50.29-56.77c-5-4.82-5-13.11,0-18.37s13.31-5.63,18.34-.81l58.43,50.69c7.58,7.14,7.88,18.7,2.13,25.56C272.89,380.86,258.91,381.81,250.88,372.68Z" transform="translate(-14.5 -91.5)"/><path class="cls-3" d="M102,168a65.76,65.76,0,0,0-27,7,64.58,64.58,0,0,0-26,24,60.08,60.08,0,0,0-7,18l-9,66a24.83,24.83,0,0,0,2,15c.48,1,5.23,10.44,16,13,9,2.15,18.79-1.38,25-9l20-39a9.66,9.66,0,0,1,3-4,11,11,0,0,1,7-2c5.66,0,45.8-.06,101,0a11.78,11.78,0,0,1,6,2,11.51,11.51,0,0,1,3,3l19,39a25.22,25.22,0,0,0,6,6c.77.54,10.21,7,21,4,9.62-2.65,16.89-11.84,18-23a557.06,557.06,0,0,0-9-66c-1.91-9.57-3.92-18-10-27a63.11,63.11,0,0,0-29-23,61.59,61.59,0,0,0-23-4Z" transform="translate(-14.5 -91.5)"/><rect class="cls-4" x="64.28" y="101.5" width="12.44" height="36" rx="6.22"/><rect class="cls-4" x="78.78" y="193" width="12.44" height="36" rx="6.22" transform="translate(281.5 34.5) rotate(90)"/><circle class="cls-4" cx="213.5" cy="104.5" r="6"/><circle class="cls-4" cx="213.5" cy="128.5" r="6"/><circle class="cls-4" cx="201.5" cy="116.5" r="6"/><circle class="cls-4" cx="225.5" cy="116.5" r="6"/><rect class="cls-4" x="116.5" y="94.5" width="11" height="31" rx="5.5"/><rect class="cls-4" x="161.5" y="94.5" width="11" height="31" rx="5.5"/><path class="cls-4" d="M195.9,226c1.27,1.77-.08,4.72-.78,6.23-5.19,11.32-23,15.72-36.18,14.79-21.78-1.56-38.38-18.28-37-21,1.2-2.33,14.35,6.92,36.57,7C178,233.11,192.71,221.57,195.9,226Z" transform="translate(-14.5 -91.5)"/><text class="cls-5" transform="translate(307.5 164.03)">GameQu store</text></svg>